<svg width="60" height="60" viewBox="0 0 60 60" fill="none" xmlns="http://www.w3.org/2000/svg">
<path d="M56.2537 41.5988C56.3588 32.34 51.6975 23.7337 43.7175 18.8587C41.0025 17.2012 38.0625 16.1325 35.0588 15.54C35.4113 14.805 35.625 13.9913 35.625 13.125C35.625 10.0237 33.1012 7.5 30 7.5C26.8988 7.5 24.375 10.0237 24.375 13.125C24.375 13.9913 24.5888 14.805 24.9412 15.54C21.9375 16.1325 18.9975 17.1975 16.2825 18.855C8.3025 23.73 3.64125 32.3363 3.74625 41.595C1.57125 42.375 0 44.4338 0 46.875C0 49.9762 2.52375 52.5 5.625 52.5H54.375C57.4762 52.5 60 49.9762 60 46.875C60 44.4338 58.4288 42.375 56.2537 41.5988ZM30 11.25C31.0312 11.25 31.875 12.0938 31.875 13.125C31.875 14.1375 31.065 14.955 30.06 14.9887C30.0187 14.9887 29.9775 14.9887 29.94 14.9887C28.935 14.955 28.125 14.1375 28.125 13.125C28.125 12.0938 28.9688 11.25 30 11.25ZM18.2362 22.0575C21.8363 19.86 25.8675 18.7575 29.9025 18.7425C29.9363 18.7388 29.9662 18.75 30 18.75C30.0338 18.75 30.0637 18.7425 30.0975 18.7388C34.1325 18.7575 38.1637 19.8562 41.76 22.0538C48.5175 26.1825 52.5 33.4275 52.5112 41.25H7.48875C7.5 33.4275 11.4825 26.1825 18.2362 22.0575ZM54.375 48.75H5.625C4.59375 48.75 3.75 47.9062 3.75 46.875C3.75 45.8438 4.59375 45 5.625 45H54.375C55.4062 45 56.25 45.8438 56.25 46.875C56.25 47.9062 55.4062 48.75 54.375 48.75Z" fill="white"/>
<path d="M43.9612 28.7362C40.4062 24.7725 35.3212 22.5 30 22.5C28.965 22.5 28.125 23.34 28.125 24.375C28.125 25.41 28.965 26.25 30 26.25C34.2562 26.25 38.3287 28.0688 41.1712 31.2413C41.5425 31.6538 42.0525 31.8637 42.5662 31.8637C43.0125 31.8637 43.4587 31.7063 43.8187 31.3838C44.5875 30.69 44.655 29.5087 43.9612 28.7362Z" fill="white"/>
</svg>
