<svg width="60" height="60" viewBox="0 0 60 60" fill="none" xmlns="http://www.w3.org/2000/svg">
<path d="M59.613 25.9475C59.4461 25.4686 59.3019 25.0549 56.4567 22.0121C54.8789 20.3246 52.7204 18.1036 50.3789 15.758C44.8971 10.2666 39.559 5.21895 36.0995 2.25527C34.4018 0.800859 32.2358 0 30.0009 0C27.7661 0 25.6001 0.800859 23.9025 2.25527C22.7641 3.23027 21.4213 4.43156 19.9228 5.81391V2.34375C19.9228 1.0493 18.8735 0 17.5791 0H8.20405C6.9096 0 5.8603 1.0493 5.86019 2.34375V19.5824C0.778468 24.8302 0.571983 25.4223 0.388819 25.9473C-0.334111 28.0213 -0.0274309 30.2991 1.20948 32.0399C2.30589 33.583 3.97956 34.524 5.8603 34.673V50.625C5.8603 55.7944 10.0659 60 15.2353 60H44.7666C49.9359 60 54.1416 55.7944 54.1416 50.625C54.1416 49.3305 53.0923 48.2812 51.7978 48.2812C50.5034 48.2812 49.4541 49.3305 49.4541 50.625C49.4541 53.2097 47.3512 55.3125 44.7666 55.3125H38.2041V41.4844C38.2041 40.1899 37.1548 39.1406 35.8603 39.1406H24.1416C22.8471 39.1406 21.7978 40.1899 21.7978 41.4844V55.3125H15.2353C12.6506 55.3125 10.5478 53.2097 10.5478 50.625V33.6282C11.3198 33.1644 12.0821 32.5541 12.8312 31.7943C13.3869 31.2304 14.1546 30.918 14.9443 30.9369C15.6855 30.9547 16.4125 31.2735 16.9386 31.8114C18.8058 33.7198 20.7745 34.6875 22.79 34.6875H22.8912C24.9281 34.6875 26.9205 33.714 28.8132 31.7941C29.3454 31.2541 30.0824 30.942 30.8353 30.9374C30.8409 30.9374 30.8464 30.9374 30.8522 30.9374C31.6235 30.9374 32.3766 31.2554 32.9205 31.8114C34.7877 33.7198 36.7564 34.6875 38.772 34.6875H38.8731C40.91 34.6875 42.9025 33.714 44.7952 31.7941C45.7038 30.8722 45.6933 29.3884 44.7715 28.4796C43.8498 27.5711 42.3659 27.5816 41.457 28.5034C40.5056 29.4686 39.588 30 38.8732 30H38.7721C38.0848 30 37.1966 29.4791 36.2713 28.5332C34.85 27.0805 32.8772 26.2499 30.8518 26.2499C30.8371 26.2499 30.8221 26.2499 30.8074 26.25C28.8184 26.262 26.8748 27.0832 25.475 28.5034C24.5237 29.4686 23.6061 30 22.8913 30H22.7902C22.1028 30 21.2147 29.4791 20.2894 28.5333C18.896 27.1091 17.038 26.2985 15.0575 26.2507C12.985 26.202 10.9539 27.0217 9.49312 28.5035C8.61702 29.3923 7.78066 29.9169 7.10929 30.0064H6.39023C5.66671 30.0064 5.25163 29.6359 5.03085 29.3251C4.71058 28.8743 4.61179 28.28 4.753 27.7007C5.16866 27.1623 6.59695 25.5425 9.88312 22.1685C10.3093 21.7309 10.5478 21.1441 10.5478 20.5332V4.6875H15.2354V11.24C15.2354 12.1791 15.7957 13.0273 16.6593 13.3958C17.523 13.7643 18.523 13.5819 19.2008 12.9321C22.2668 9.99375 24.9471 7.5327 26.952 5.8152C28.7187 4.30184 31.2834 4.30184 33.0499 5.8152C40.3894 12.1022 53.5526 25.4382 55.2477 27.6954C55.3908 28.2765 55.2923 28.8729 54.9711 29.3251C54.7504 29.6359 54.3353 30.0064 53.6118 30.0064H51.7978C50.5034 30.0064 49.4541 31.0557 49.4541 32.3502V38.9062C49.4541 40.2007 50.5034 41.25 51.7978 41.25C53.0923 41.25 54.1416 40.2007 54.1416 38.9062V34.673C56.0223 34.524 57.6961 33.583 58.7924 32.0399C60.0292 30.2991 60.3359 28.0214 59.613 25.9475ZM26.4853 43.8281H33.5166V55.3125H26.4853V43.8281Z" fill="white"/>
</svg>
