<svg width="60" height="60" viewBox="0 0 60 60" fill="none" xmlns="http://www.w3.org/2000/svg">
<g clip-path="url(#clip0)">
<path d="M59.8242 53.2453C59.3321 52.0477 57.9662 51.4751 56.7691 51.9667C56.7252 51.9846 54.3526 52.917 49.4279 53.7927C50.7903 52.3915 52.0395 50.8219 53.1656 49.0833C53.8687 47.997 53.5583 46.5459 52.4721 45.8423C51.3858 45.1392 49.9347 45.4495 49.2311 46.5358C46.869 50.1833 43.9005 52.9468 40.4073 54.7499C40.2988 54.8058 40.1985 54.8712 40.1028 54.9408C37.1484 55.1665 33.7857 55.3093 29.9982 55.3093C26.2614 55.3093 22.9422 55.1706 20.0244 54.95C19.9168 54.8708 19.8033 54.798 19.6797 54.7362C11.2001 50.4982 7.30545 42.28 5.69092 33.9134C6.69479 34.0338 7.65564 34.3813 8.47412 34.9393C10.0507 36.015 11.6624 36.5602 13.2642 36.5602C14.8663 36.5602 16.4781 36.015 18.0547 34.9393C20.1604 33.5033 23.102 33.5028 25.2081 34.9393C26.7847 36.015 28.3965 36.5602 29.9982 36.5602C31.6003 36.5602 33.2117 36.015 34.7887 34.9393C36.8948 33.5028 39.836 33.5028 41.9421 34.9393C43.5187 36.015 45.1305 36.5602 46.7322 36.5602C48.3344 36.5602 49.9461 36.015 51.5227 34.9393C52.3091 34.4028 53.2278 34.0608 54.1901 33.9281C53.9145 35.2391 53.589 36.5154 53.2127 37.7545C52.8369 38.9928 53.5359 40.302 54.7746 40.6778C56.0129 41.0536 57.3216 40.3546 57.6979 39.1159C59.2227 34.091 59.9963 28.5397 59.9963 22.6158C59.9963 21.3217 58.9471 20.2725 57.6526 20.2725H51.026L59.6237 3.40807C60.2115 2.25496 59.7533 0.843674 58.6002 0.255906C57.4475 -0.33232 56.0358 0.125901 55.4475 1.27947L45.7649 20.2725H2.34375C1.04919 20.2725 0 21.3217 0 22.6158C0 31.1911 1.39206 38.5904 4.13681 44.6086C5.76279 48.1732 7.85019 51.2265 10.3761 53.7488C5.6813 52.8923 3.42041 51.9974 3.35541 51.9713C2.16248 51.4783 0.794678 52.0432 0.297546 53.2361C-0.200501 54.4309 0.36438 55.8028 1.5596 56.3008C1.92169 56.4514 10.6517 59.9964 29.9982 59.9964C49.3391 59.9964 58.1767 56.456 58.5439 56.3049C59.7409 55.8133 60.3159 54.4423 59.8242 53.2453ZM55.2649 24.9596C55.2104 26.3951 55.1051 27.8027 54.95 29.1802C52.7802 29.2099 50.6493 29.8613 48.8814 31.0675C48.0972 31.6022 47.3744 31.8732 46.7322 31.8732C46.2927 31.8732 45.8148 31.7432 45.3062 31.4919L48.6365 24.9596H55.2649ZM43.3754 24.9596L41.0596 29.502C40.1894 29.2887 39.2862 29.1779 38.3652 29.1779C36.1093 29.1779 33.9592 29.8311 32.1474 31.0675C31.3632 31.6022 30.6404 31.8732 29.9982 31.8732C29.3559 31.8732 28.6331 31.6022 27.849 31.0675C26.0367 29.8311 23.8866 29.1779 21.6312 29.1779C19.3753 29.1779 17.2252 29.8311 15.4134 31.0675C14.6292 31.6022 13.9059 31.8732 13.2637 31.8732C12.6219 31.8732 11.8987 31.6022 11.1145 31.0675C9.33563 29.8535 7.18872 29.2017 5.00473 29.1797C4.86053 27.7492 4.77127 26.3361 4.72549 24.9596H43.3754ZM8.90579 12.8897C8.90579 10.4576 10.589 8.95845 11.9412 7.75362C13.2765 6.56435 14.0323 5.83513 14.0323 4.68752C14.0323 3.39296 15.0815 2.34377 16.376 2.34377C17.6701 2.34377 18.7198 3.39296 18.7198 4.68752C18.7198 7.99303 16.6035 9.87764 15.0591 11.2537C14.4402 11.8048 13.5928 12.5597 13.5928 12.8897C13.5928 14.1843 12.5436 15.2335 11.2495 15.2335C9.95499 15.2335 8.90579 14.1843 8.90579 12.8897ZM21.3268 12.8664C21.3268 10.0438 23.2777 8.30568 24.9989 6.77263C26.7998 5.16863 27.9034 4.09609 27.9034 2.34377C27.9034 1.04921 28.9526 1.59469e-05 30.2472 1.59469e-05C31.5417 1.59469e-05 32.5909 1.04921 32.5909 2.34377C32.5909 6.2874 30.005 8.59087 28.1163 10.2727C27.0355 11.2358 26.0143 12.1454 26.0143 12.8664C26.0143 14.1609 24.9646 15.2101 23.6705 15.2101C22.3759 15.2101 21.3268 14.1609 21.3268 12.8664ZM34.0778 12.8897C34.0778 10.4576 35.7605 8.95845 37.1132 7.75362C38.4485 6.56435 39.2043 5.83513 39.2043 4.68752C39.2043 3.39296 40.2534 2.34377 41.548 2.34377C42.8421 2.34377 43.8913 3.39296 43.8913 4.68752C43.8913 7.99303 41.7755 9.87764 40.2306 11.2537C39.6121 11.8048 38.7648 12.5597 38.7648 12.8897C38.7648 14.1843 37.7156 15.2335 36.4211 15.2335C35.127 15.2335 34.0778 14.1843 34.0778 12.8897Z" fill="white"/>
</g>
<defs>
<clipPath id="clip0">
<rect width="60" height="60" fill="white"/>
</clipPath>
</defs>
</svg>
