<svg width="60" height="60" viewBox="0 0 60 60" fill="none" xmlns="http://www.w3.org/2000/svg">
<g clip-path="url(#clip0)">
<path d="M47.1094 34.2188C46.6278 34.2188 46.1526 34.2462 45.6844 34.2979L43.7027 27.7432L49.286 19.476C49.7713 18.7573 49.8203 17.8299 49.4133 17.0645C49.0068 16.2987 48.2108 15.8203 47.3438 15.8203H38.0859C36.7914 15.8203 35.7422 16.8695 35.7422 18.1641C35.7422 19.4586 36.7914 20.5078 38.0859 20.5078H42.9327L40.1628 24.6094H34.3359C30.4399 24.6094 26.6331 25.6984 23.3263 27.7583C22.9994 27.962 22.6808 28.1767 22.3672 28.3974L18.8168 22.8539L26.3091 22.8516C27.6036 22.8511 28.6528 21.8015 28.6523 20.5074C28.6519 19.2128 27.6027 18.1641 26.3086 18.1641C26.3081 18.1641 26.3081 18.1641 26.3077 18.1641L25.2608 18.1645C25.5212 17.4307 25.6641 16.6425 25.6641 15.8203V12.8906C26.9586 12.8906 28.0078 11.8414 28.0078 10.5469V2.34375C28.0078 1.04919 26.9586 0 25.6641 0H2.34375C1.04919 0 1.49735e-07 1.04919 1.49735e-07 2.34375V10.5469C1.49735e-07 11.8414 1.04919 12.8906 2.34375 12.8906V15.8203C2.34375 16.6447 2.48749 17.4358 2.74933 18.1714L2.34283 18.1718C1.04874 18.1718 -0.000457614 19.2215 1.49735e-07 20.5161C0.000457913 21.8102 1.04965 22.8589 2.34375 22.8589H2.34467L13.2518 22.8557L18.8191 31.5486C17.9416 32.5291 17.1588 33.5934 16.4795 34.7278C15.3401 34.3968 14.1357 34.2188 12.8906 34.2188C5.78293 34.2188 1.49735e-07 40.0017 1.49735e-07 47.1094C1.49735e-07 54.2171 5.78293 60 12.8906 60C19.9983 60 25.7812 54.2171 25.7812 47.1094C25.7812 42.9259 23.7772 39.2015 20.6795 36.8454C23.6046 32.2119 28.7965 29.2969 34.3359 29.2969H39.2757L41.1983 35.6561C37.056 37.803 34.2188 42.1307 34.2188 47.1094C34.2188 54.2171 40.0012 60 47.1094 60C49.4696 60 51.779 59.3555 53.7881 58.1364C54.895 57.4654 55.2475 56.0239 54.5764 54.917C53.9049 53.8101 52.4634 53.4576 51.3565 54.1292C50.0807 54.9033 48.6118 55.3125 47.1094 55.3125C42.5862 55.3125 38.9062 51.6325 38.9062 47.1094C38.9062 44.2543 40.3729 41.7366 42.5922 40.2667L44.8659 47.7878C45.1721 48.8008 46.1018 49.4536 47.1085 49.4536C47.3332 49.4536 47.5616 49.4211 47.7878 49.3529C49.0265 48.9784 49.7273 47.6701 49.3529 46.431L47.0778 38.9072C47.0883 38.9072 47.0988 38.9062 47.1094 38.9062C51.6325 38.9062 55.3125 42.5862 55.3125 47.1094C55.3125 48.4039 56.3617 49.4531 57.6562 49.4531C58.9508 49.4531 60 48.4039 60 47.1094C60 40.0017 54.2171 34.2188 47.1094 34.2188ZM4.6875 4.6875H23.3203V8.20312H4.6875V4.6875ZM11.8359 12.8906V13.5938C11.8359 14.8883 12.8851 15.9375 14.1797 15.9375C15.4742 15.9375 16.5234 14.8883 16.5234 13.5938V12.8906H20.9766V15.8203C20.9766 17.1126 19.9251 18.1641 18.6328 18.1641H9.375C8.08273 18.1641 7.03125 17.1126 7.03125 15.8203V12.8906H11.8359ZM12.8906 55.3125C8.36746 55.3125 4.6875 51.6325 4.6875 47.1094C4.6875 42.5862 8.36746 38.9062 12.8906 38.9062C13.3626 38.9062 13.8249 38.9488 14.2754 39.0257L10.7899 46.0703C10.2159 47.2302 10.6911 48.636 11.851 49.2101C13.0115 49.7841 14.4173 49.3089 14.9913 48.149L18.4749 41.1081C20.0844 42.6068 21.0938 44.7418 21.0938 47.1094C21.0938 51.6325 17.4138 55.3125 12.8906 55.3125Z" fill="white"/>
</g>
<defs>
<clipPath id="clip0">
<rect width="60" height="60" fill="white"/>
</clipPath>
</defs>
</svg>
